<svg width="30" height="30" viewBox="0 0 30 30" fill="none" xmlns="http://www.w3.org/2000/svg">
<circle cx="15" cy="15" r="15" fill="#EB5757"/>
<path fill-rule="evenodd" clip-rule="evenodd" d="M16.9128 14.9367L21.2666 10.1747L19.7905 8.8252L15.4367 13.5872L10.6747 9.23337L9.3252 10.7094L14.0872 15.0632L9.7334 19.8252L11.2095 21.1747L15.5632 16.4128L20.3252 20.7666L21.6747 19.2905L16.9128 14.9367Z" fill="url(#paint0_linear)"/>
<path fill-rule="evenodd" clip-rule="evenodd" d="M16.9128 14.9367L21.2666 10.1747L19.7905 8.8252L15.4367 13.5872L10.6747 9.23337L9.3252 10.7094L14.0872 15.0632L9.7334 19.8252L11.2095 21.1747L15.5632 16.4128L20.3252 20.7666L21.6747 19.2905L16.9128 14.9367Z" fill="white"/>
<defs>
<linearGradient id="paint0_linear" x1="15.5" y1="8.8252" x2="15.5" y2="21.1747" gradientUnits="userSpaceOnUse">
<stop stop-color="#E66767"/>
<stop offset="1" stop-color="#EB6A90"/>
</linearGradient>
</defs>
</svg>
